<svg width="119" height="30" viewBox="0 0 119 30" fill="none" xmlns="http://www.w3.org/2000/svg">
<path d="M62.404 29.8281H64.9723V24.8102H69.9131V22.6927H64.9723V19.7982H70.4469V17.6807H62.404V29.8281Z" fill="#212324"/>
<path d="M76.9732 17.6807H74.4049V29.8281H76.9732V17.6807Z" fill="#212324"/>
<path d="M91.4027 17.6807H88.8463V25.3203H88.7396L83.4963 17.6807H81.2424V29.8281H83.8106V22.1826H83.8996L89.1844 29.8281H91.4027V17.6807Z" fill="#212324"/>
<path d="M99.7526 29.8281C103.454 29.8281 105.696 27.5386 105.696 23.7425C105.696 19.9583 103.454 17.6807 99.7882 17.6807H95.4465V29.8281H99.7526ZM98.0147 27.6276V19.8812H99.6518C101.929 19.8812 103.133 21.0438 103.133 23.7425C103.133 26.4532 101.929 27.6276 99.6459 27.6276H98.0147Z" fill="#212324"/>
<path d="M115.12 21.1742H117.581C117.546 19.0092 115.766 17.5145 113.061 17.5145C110.398 17.5145 108.447 18.9855 108.459 21.192C108.453 22.9832 109.716 24.0094 111.768 24.5017L113.091 24.8338C114.414 25.1541 115.149 25.5337 115.155 26.3522C115.149 27.2419 114.307 27.8469 113.002 27.8469C111.668 27.8469 110.707 27.2301 110.624 26.0141H108.138C108.204 28.6417 110.084 30 113.032 30C115.997 30 117.741 28.5824 117.747 26.3582C117.741 24.3356 116.217 23.262 114.105 22.7875L113.014 22.5265C111.958 22.2833 111.074 21.8919 111.092 21.02C111.092 20.237 111.786 19.6617 113.044 19.6617C114.271 19.6617 115.025 20.2192 115.12 21.1742Z" fill="#212324"/>
<path d="M56.0149 23.7543C56.0149 26.9253 53.4443 29.4959 50.2733 29.4959C47.1024 29.4959 44.5318 26.9253 44.5318 23.7543C44.5318 20.5834 47.1024 18.0128 50.2733 18.0128C53.4443 18.0128 56.0149 20.5834 56.0149 23.7543Z" fill="#6EAECF"/>
<path d="M118.739 6.0738C118.739 9.24476 116.168 11.8153 112.997 11.8153C109.826 11.8153 107.256 9.24476 107.256 6.0738C107.256 2.90284 109.826 0.332275 112.997 0.332275C116.168 0.332275 118.739 2.90284 118.739 6.0738Z" fill="#8E79AF"/>
<path d="M16.6236 0H13.7706L17.9641 12.1474H21.2737L25.4613 0H22.6142L19.6723 9.22915H19.5596L16.6236 0Z" fill="#212324"/>
<path d="M29.2229 12.1474H37.4319V10.0299H31.7912V7.12946H36.987V5.01197H31.7912V2.11748H37.4082V0H29.2229V12.1474Z" fill="#212324"/>
<path d="M41.9823 12.1474H44.5506V7.84122H46.4249L48.7263 12.1474H51.5614L48.9813 7.42602C50.3633 6.83289 51.1285 5.62883 51.1285 3.96806C51.1285 1.55401 49.5329 0 46.7749 0H41.9823V12.1474ZM44.5506 5.77711V2.09969H46.2826C47.7654 2.09969 48.4831 2.75807 48.4831 3.96806C48.4831 5.17212 47.7654 5.77711 46.2944 5.77711H44.5506Z" fill="#212324"/>
<path d="M53.5949 0L58.0257 7.85308V12.1474H60.5761V7.85308L65.0068 0H62.1301L59.3602 5.23143H59.2416L56.4716 0H53.5949Z" fill="#212324"/>
<path d="M72.5028 12.1474C76.204 12.1474 78.446 9.85787 78.446 6.06182C78.446 2.27763 76.204 0 72.5384 0H68.1965V12.1474H72.5028ZM70.7649 9.94684V2.20052H72.402C74.6796 2.20052 75.8837 3.36306 75.8837 6.06182C75.8837 8.77244 74.6796 9.94684 72.396 9.94684H70.7649Z" fill="#212324"/>
<path d="M83.4873 12.1474L84.3889 9.37743H88.7721L89.6737 12.1474H92.4258L88.2383 0H84.9286L80.7352 12.1474H83.4873ZM85.0413 7.37264L86.536 2.77586H86.6309L88.1256 7.37264H85.0413Z" fill="#212324"/>
<path d="M93.1465 0L97.5772 7.85308V12.1474H100.128V7.85308L104.558 0H101.682L98.9118 5.23143H98.7932L96.0232 0H93.1465Z" fill="#212324"/>
<path d="M2.02963 12.1474H10.2386V10.0299H4.5979V7.12946H9.79374V5.01197H4.5979V2.11748H10.2149V0H2.02963V12.1474Z" fill="#212324"/>
<path d="M11.8575 23.7543C11.8575 20.5834 9.28693 18.0128 6.11596 18.0128C2.945 18.0128 0.37442 20.5834 0.37442 23.7543C0.37442 26.9253 2.945 29.4959 6.11596 29.4959C9.28693 29.4959 11.8575 26.9253 11.8575 23.7543Z" fill="#F9B09A"/>
<path d="M26.5768 23.7543C26.5768 26.9253 24.0062 29.4959 20.8353 29.4959C17.6643 29.4959 15.0937 26.9253 15.0937 23.7543C15.0937 20.5834 17.6643 18.0128 20.8353 18.0128C24.0062 18.0128 26.5768 20.5834 26.5768 23.7543Z" fill="#479A70"/>
<path d="M41.2961 23.7543C41.2961 26.9253 38.7255 29.4959 35.5545 29.4959C32.3836 29.4959 29.813 26.9253 29.813 23.7543C29.813 20.5834 32.3836 18.0128 35.5545 18.0128C38.7255 18.0128 41.2961 20.5834 41.2961 23.7543Z" fill="#EBBE6B"/>
</svg>
